<svg width="21" height="21" viewBox="0 0 21 21" fill="none" xmlns="http://www.w3.org/2000/svg">
<path d="M10.709 20.9102C16.1582 20.9102 20.6699 16.3887 20.6699 10.9492C20.6699 5.5 16.1484 0.988281 10.6992 0.988281C5.25977 0.988281 0.748047 5.5 0.748047 10.9492C0.748047 16.3887 5.26953 20.9102 10.709 20.9102ZM10.709 19.25C6.09961 19.25 2.41797 15.5586 2.41797 10.9492C2.41797 6.33984 6.08984 2.64844 10.6992 2.64844C15.3086 2.64844 19 6.33984 19.0098 10.9492C19.0195 15.5586 15.3184 19.25 10.709 19.25ZM10.6992 10.6465C12.0859 10.6562 13.209 9.47461 13.209 7.91211C13.209 6.44727 12.0859 5.22656 10.6992 5.22656C9.3125 5.22656 8.18945 6.44727 8.18945 7.91211C8.18945 9.47461 9.3125 10.6367 10.6992 10.6465ZM6.23633 15.9004H15.1621C15.5527 15.9004 15.7383 15.6465 15.7383 15.2852C15.7383 14.2207 14.127 11.4473 10.6992 11.4473C7.27148 11.4473 5.66016 14.2207 5.66016 15.2852C5.66016 15.6465 5.8457 15.9004 6.23633 15.9004Z" fill="#1F8FEB"/>
</svg>
