<svg width="17" height="17" viewBox="0 0 17 17" fill="none" xmlns="http://www.w3.org/2000/svg">
<path d="M8.36719 16.3281C12.7266 16.3281 16.3359 12.7109 16.3359 8.35938C16.3359 4 12.7188 0.390625 8.35938 0.390625C4.00781 0.390625 0.398438 4 0.398438 8.35938C0.398438 12.7109 4.01562 16.3281 8.36719 16.3281ZM8.28906 5.50781C7.70312 5.50781 7.23438 5.03906 7.23438 4.44531C7.23438 3.85156 7.70312 3.38281 8.28906 3.38281C8.875 3.38281 9.33594 3.85156 9.33594 4.44531C9.33594 5.03906 8.875 5.50781 8.28906 5.50781ZM6.95312 12.8047C6.61719 12.8047 6.35938 12.5625 6.35938 12.2266C6.35938 11.9141 6.61719 11.6562 6.95312 11.6562H7.94531V7.98438H7.08594C6.75781 7.98438 6.5 7.74219 6.5 7.40625C6.5 7.09375 6.75781 6.83594 7.08594 6.83594H8.60156C9.01562 6.83594 9.23438 7.13281 9.23438 7.57031V11.6562H10.2266C10.5625 11.6562 10.8203 11.9141 10.8203 12.2266C10.8203 12.5625 10.5625 12.8047 10.2266 12.8047H6.95312Z" fill="#1F8FEB"/>
</svg>
