<svg width="11" height="18" viewBox="0 0 11 18" fill="none" xmlns="http://www.w3.org/2000/svg">
<path d="M10.291 8.94922C10.291 8.70508 10.1934 8.48047 10.0078 8.30469L2.27344 0.726562C2.09766 0.560547 1.88281 0.472656 1.62891 0.472656C1.13086 0.472656 0.740234 0.853516 0.740234 1.36133C0.740234 1.60547 0.837891 1.83008 0.994141 1.99609L8.10352 8.94922L0.994141 15.9023C0.837891 16.0684 0.740234 16.2832 0.740234 16.5371C0.740234 17.0449 1.13086 17.4258 1.62891 17.4258C1.88281 17.4258 2.09766 17.3379 2.27344 17.1621L10.0078 9.59375C10.1934 9.4082 10.291 9.19336 10.291 8.94922Z" fill="#1F8FEB"/>
</svg>
