<svg width="100%" height="100%" viewBox="0 0 22 22" fill="none" xmlns="http://www.w3.org/2000/svg">
<path d="M10.2109 21.3887H12.1836C12.9355 21.3887 13.5117 20.9297 13.6875 20.207L14.1074 18.3809L14.4199 18.2734L16.0117 19.25C16.6465 19.6504 17.3789 19.5527 17.916 19.0156L19.2832 17.6582C19.8203 17.1211 19.918 16.3789 19.5176 15.7539L18.5215 14.1719L18.6387 13.8789L20.4648 13.4492C21.1777 13.2734 21.6465 12.6875 21.6465 11.9453V10.0117C21.6465 9.26953 21.1875 8.68359 20.4648 8.50781L18.6582 8.06836L18.5312 7.75586L19.5273 6.17383C19.9277 5.54883 19.8301 4.81641 19.293 4.26953L17.9258 2.90234C17.3984 2.375 16.666 2.27734 16.0312 2.66797L14.4395 3.64453L14.1074 3.51758L13.6875 1.69141C13.5117 0.96875 12.9355 0.509766 12.1836 0.509766H10.2109C9.45898 0.509766 8.88281 0.96875 8.70703 1.69141L8.27734 3.51758L7.94531 3.64453L6.36328 2.66797C5.72852 2.27734 4.98633 2.375 4.45898 2.90234L3.10156 4.26953C2.56445 4.81641 2.45703 5.54883 2.86719 6.17383L3.85352 7.75586L3.73633 8.06836L1.92969 8.50781C1.20703 8.68359 0.748047 9.26953 0.748047 10.0117V11.9453C0.748047 12.6875 1.2168 13.2734 1.92969 13.4492L3.75586 13.8789L3.86328 14.1719L2.87695 15.7539C2.4668 16.3789 2.57422 17.1211 3.11133 17.6582L4.46875 19.0156C5.00586 19.5527 5.74805 19.6504 6.38281 19.25L7.96484 18.2734L8.27734 18.3809L8.70703 20.207C8.88281 20.9297 9.45898 21.3887 10.2109 21.3887ZM10.3672 19.8652C10.2012 19.8652 10.1133 19.7969 10.084 19.6406L9.49805 17.2188C8.90234 17.0723 8.3457 16.8379 7.92578 16.5742L5.79688 17.8828C5.67969 17.9707 5.55273 17.9512 5.43555 17.834L4.2832 16.6816C4.17578 16.5742 4.16602 16.457 4.24414 16.3203L5.55273 14.2109C5.32812 13.8008 5.07422 13.2441 4.91797 12.6484L2.49609 12.0723C2.33984 12.043 2.27148 11.9551 2.27148 11.7891V10.1582C2.27148 9.98242 2.33008 9.9043 2.49609 9.875L4.9082 9.28906C5.06445 8.6543 5.35742 8.07812 5.5332 7.7168L4.23438 5.60742C4.14648 5.46094 4.15625 5.34375 4.26367 5.22656L5.42578 4.09375C5.54297 3.97656 5.65039 3.95703 5.79688 4.04492L7.90625 5.32422C8.32617 5.08984 8.92188 4.8457 9.50781 4.67969L10.084 2.25781C10.1133 2.10156 10.2012 2.0332 10.3672 2.0332H12.0273C12.1934 2.0332 12.2812 2.10156 12.3008 2.25781L12.8965 4.69922C13.502 4.85547 14.0293 5.09961 14.4688 5.33398L16.5879 4.04492C16.7441 3.95703 16.8418 3.97656 16.9688 4.09375L18.1211 5.22656C18.2383 5.34375 18.2383 5.46094 18.1504 5.60742L16.8516 7.7168C17.0371 8.07812 17.3203 8.6543 17.4766 9.28906L19.8984 9.875C20.0547 9.9043 20.123 9.98242 20.123 10.1582V11.7891C20.123 11.9551 20.0449 12.043 19.8984 12.0723L17.4668 12.6484C17.3105 13.2441 17.0664 13.8008 16.832 14.2109L18.1406 16.3203C18.2188 16.457 18.2188 16.5742 18.1016 16.6816L16.959 17.834C16.832 17.9512 16.7148 17.9707 16.5879 17.8828L14.459 16.5742C14.0391 16.8379 13.4922 17.0723 12.8965 17.2188L12.3008 19.6406C12.2812 19.7969 12.1934 19.8652 12.0273 19.8652H10.3672ZM11.1973 14.6797C13.2383 14.6797 14.918 13 14.918 10.9492C14.918 8.91797 13.2383 7.23828 11.1973 7.23828C9.15625 7.23828 7.4668 8.91797 7.4668 10.9492C7.4668 12.9902 9.14648 14.6797 11.1973 14.6797ZM11.1973 13.166C9.98633 13.166 8.99023 12.1699 8.99023 10.9492C8.99023 9.74805 9.98633 8.75195 11.1973 8.75195C12.3887 8.75195 13.3848 9.74805 13.3848 10.9492C13.3848 12.1602 12.3887 13.166 11.1973 13.166Z" fill="#1F8FEB"/>
</svg>
