<svg width="19" height="24" viewBox="0 0 19 24" fill="none" xmlns="http://www.w3.org/2000/svg">
<path d="M4.65625 1.75391H14.1289C14.0703 0.933594 13.6016 0.494141 12.7031 0.494141H6.08203C5.18359 0.494141 4.71484 0.933594 4.65625 1.75391ZM2.91797 4.45898H15.7793C15.6328 3.58008 15.2129 3.08203 14.2363 3.08203H4.4707C3.48438 3.08203 3.06445 3.58008 2.91797 4.45898ZM3.91406 23.3457H15.3789C17.127 23.3457 18.1523 22.3301 18.1523 20.3184V9.06836C18.1523 7.05664 17.1172 6.04102 15.0859 6.04102H3.91406C1.87305 6.04102 0.847656 7.04688 0.847656 9.06836V20.3184C0.847656 22.3301 1.87305 23.3457 3.91406 23.3457ZM3.93359 21.7734C2.95703 21.7734 2.41992 21.2461 2.41992 20.2305V9.14648C2.41992 8.13086 2.95703 7.61328 3.93359 7.61328H15.0566C16.0234 7.61328 16.5801 8.13086 16.5801 9.14648V20.2305C16.5801 21.2461 16.0234 21.7734 15.3496 21.7734H3.93359Z" fill="#1F8FEB"/>
</svg>
