<svg width="16" height="16" viewBox="0 0 16 16" fill="none" xmlns="http://www.w3.org/2000/svg">
<path d="M2.72314 15.6602H12.792C14.5352 15.6602 15.3984 14.7969 15.3984 13.0869V2.95166C15.3984 1.2417 14.5352 0.378418 12.792 0.378418H2.72314C0.988281 0.378418 0.116699 1.2334 0.116699 2.95166V13.0869C0.116699 14.8052 0.988281 15.6602 2.72314 15.6602ZM2.73975 14.3237C1.90967 14.3237 1.45312 13.8838 1.45312 13.0205V3.01807C1.45312 2.15479 1.90967 1.71484 2.73975 1.71484H12.7754C13.5972 1.71484 14.062 2.15479 14.062 3.01807V13.0205C14.062 13.8838 13.5972 14.3237 12.7754 14.3237H2.73975ZM4.93115 11.5181C5.12207 11.5181 5.28809 11.4434 5.4126 11.3105L7.76172 8.95312L10.1274 11.3105C10.252 11.4351 10.4097 11.5181 10.6006 11.5181C10.9741 11.5181 11.2646 11.2192 11.2646 10.8457C11.2646 10.6548 11.1982 10.5054 11.0654 10.3726L8.70801 8.01514L11.0737 5.64111C11.2148 5.5 11.2729 5.35889 11.2729 5.17627C11.2729 4.81104 10.9824 4.51221 10.6089 4.51221C10.4346 4.51221 10.2935 4.57861 10.1523 4.71973L7.76172 7.08545L5.396 4.72803C5.27148 4.59521 5.12207 4.52881 4.93115 4.52881C4.56592 4.52881 4.26709 4.81934 4.26709 5.18457C4.26709 5.36719 4.3418 5.5249 4.46631 5.64941L6.82373 8.01514L4.46631 10.3809C4.3418 10.5054 4.26709 10.6631 4.26709 10.8457C4.26709 11.2192 4.56592 11.5181 4.93115 11.5181Z" fill="white"/>
</svg>
