<svg width="44" height="44" viewBox="0 0 44 44" fill="none" xmlns="http://www.w3.org/2000/svg">
<path d="M7.73005 -1.19291e-06H36.27C41.3605 -1.19291e-06 44 2.63953 44 7.65935V36.3407C44 41.384 41.3605 44 36.27 44H7.73005C2.63953 44 0 41.384 0 36.3407V7.65935C0 2.61596 2.63953 -1.19291e-06 7.73005 -1.19291e-06ZM22.0825 9.66256C20.8099 9.66256 19.8907 10.5345 19.8907 11.7836V23.308L20.1264 28.3514L17.9111 25.6176L15.1773 22.7659C14.8238 22.3653 14.2817 22.1296 13.6926 22.1296C12.5378 22.1296 11.6893 22.9545 11.6893 24.1093C11.6893 24.6984 11.8543 25.1698 12.255 25.594L20.3621 33.7718C20.9041 34.3374 21.4226 34.5967 22.0825 34.5967C22.7659 34.5967 23.2844 34.3374 23.8265 33.7718L31.91 25.594C32.3107 25.1698 32.4992 24.6984 32.4992 24.1093C32.4992 22.9545 31.6272 22.1296 30.4724 22.1296C29.8832 22.1296 29.3648 22.3417 28.9877 22.7659L26.2775 25.594L24.0386 28.3749L24.2742 23.308V11.7836C24.2742 10.5345 23.3551 9.66256 22.0825 9.66256Z" fill="#1f8feb"/>
</svg>
