<svg width="100%" height="100%" viewBox="0 0 44 44" fill="none" xmlns="http://www.w3.org/2000/svg">
<path d="M7.73005 44H36.27C41.3605 44 44 41.3605 44 36.3407V7.65935C44 2.61596 41.3605 0 36.27 0H7.73005C2.63953 0 0 2.61596 0 7.65935V36.3407C0 41.384 2.63953 44 7.73005 44ZM22.0825 34.3374C20.8099 34.3374 19.8907 33.4655 19.8907 32.2164V20.692L20.1264 15.6486L17.9111 18.3824L15.1773 21.2341C14.8238 21.6347 14.2817 21.8704 13.6926 21.8704C12.5378 21.8704 11.6893 21.0455 11.6893 19.8907C11.6893 19.3016 11.8543 18.8302 12.255 18.406L20.3621 10.2282C20.9041 9.66256 21.4226 9.40332 22.0825 9.40332C22.7659 9.40332 23.2844 9.66256 23.8265 10.2282L31.91 18.406C32.3107 18.8302 32.4992 19.3016 32.4992 19.8907C32.4992 21.0455 31.6272 21.8704 30.4724 21.8704C29.8832 21.8704 29.3648 21.6583 28.9877 21.2341L26.2775 18.406L24.0386 15.6251L24.2742 20.692V32.2164C24.2742 33.4655 23.3551 34.3374 22.0825 34.3374Z" fill="#1f8feb"/>
</svg>
