<svg width="10" height="11" viewBox="0 0 10 11" fill="none" xmlns="http://www.w3.org/2000/svg">
<path d="M5.04492 10.502C5.52344 10.502 5.83594 10.1406 5.83594 9.66211V6.23438H9.06836C9.54688 6.23438 9.9082 5.92188 9.9082 5.44336C9.9082 4.96484 9.54688 4.65234 9.06836 4.65234H5.83594V1.21484C5.83594 0.736328 5.52344 0.375 5.04492 0.375C4.56641 0.375 4.25391 0.736328 4.25391 1.21484V4.65234H1.01172C0.533203 4.65234 0.171875 4.96484 0.171875 5.44336C0.171875 5.92188 0.533203 6.23438 1.01172 6.23438H4.25391V9.66211C4.25391 10.1406 4.56641 10.502 5.04492 10.502Z" fill="#1F8FEB"/>
</svg>
