<svg width="17" height="17" viewBox="0 0 17 17" fill="none" xmlns="http://www.w3.org/2000/svg">
<path d="M8.63281 16.3281C12.9922 16.3281 16.6016 12.7109 16.6016 8.35938C16.6016 4 12.9844 0.390625 8.625 0.390625C4.27344 0.390625 0.664062 4 0.664062 8.35938C0.664062 12.7109 4.28125 16.3281 8.63281 16.3281ZM12.7656 8.35156C12.7656 8.53125 12.6953 8.67188 12.5391 8.82031L9.82031 11.5469C9.71094 11.6562 9.57031 11.7188 9.39844 11.7188C9.0625 11.7188 8.8125 11.4609 8.8125 11.125C8.8125 10.9531 8.88281 10.8047 8.99219 10.6953L9.99219 9.70312L10.9688 8.89062L9.26562 8.95312H5.07812C4.72656 8.95312 4.46875 8.70312 4.46875 8.35156C4.46875 7.99219 4.72656 7.74219 5.07812 7.74219H9.26562L10.9688 7.8125L9.99219 7L8.99219 6.00781C8.89062 5.89062 8.8125 5.74219 8.8125 5.57031C8.8125 5.23438 9.0625 4.98438 9.39844 4.98438C9.57031 4.98438 9.71094 5.03906 9.82031 5.14844L12.5391 7.88281C12.7031 8.04688 12.7656 8.17188 12.7656 8.35156Z" fill="#FDFEFF" fill-opacity="0.3"/>
</svg>
