<svg width="17" height="17" viewBox="0 0 17 17" fill="none" xmlns="http://www.w3.org/2000/svg">
<path d="M8.63281 16.3281C12.9922 16.3281 16.6016 12.7109 16.6016 8.35938C16.6016 4 12.9844 0.390625 8.625 0.390625C4.27344 0.390625 0.664062 4 0.664062 8.35938C0.664062 12.7109 4.28125 16.3281 8.63281 16.3281ZM4.49219 8.35156C4.49219 8.17188 4.55469 8.04688 4.71875 7.88281L7.4375 5.14844C7.54688 5.03906 7.6875 4.98438 7.85938 4.98438C8.19531 4.98438 8.44531 5.23438 8.44531 5.57031C8.44531 5.74219 8.36719 5.89062 8.26562 6.00781L7.26562 7L6.29688 7.8125L8 7.74219H12.1797C12.5312 7.74219 12.7891 7.99219 12.7891 8.35156C12.7891 8.70312 12.5391 8.95312 12.1797 8.95312H8L6.28906 8.89062L7.26562 9.70312L8.26562 10.6953C8.375 10.8047 8.44531 10.9531 8.44531 11.125C8.44531 11.4609 8.19531 11.7188 7.85938 11.7188C7.6875 11.7188 7.54688 11.6562 7.4375 11.5469L4.71875 8.82031C4.57031 8.67188 4.49219 8.53125 4.49219 8.35156Z" fill="#FDFEFF" fill-opacity="0.3"/>
</svg>
