<svg width="18" height="22" viewBox="0 0 18 22" fill="none" xmlns="http://www.w3.org/2000/svg">
<path d="M3.81445 21.418H14.1855C16.207 21.418 17.2129 20.3926 17.2129 18.3613V9.49414C17.2129 8.23438 17.0664 7.6875 16.2852 6.88672L10.9043 1.4082C10.1621 0.646484 9.54688 0.480469 8.45312 0.480469H3.81445C1.80273 0.480469 0.787109 1.51562 0.787109 3.54688V18.3613C0.787109 20.4023 1.79297 21.418 3.81445 21.418ZM3.88281 19.8457C2.87695 19.8457 2.35938 19.3086 2.35938 18.332V3.57617C2.35938 2.60938 2.87695 2.05273 3.89258 2.05273H8.23828V7.72656C8.23828 8.95703 8.85352 9.5625 10.0742 9.5625H15.6406V18.332C15.6406 19.3086 15.123 19.8457 14.1074 19.8457H3.88281ZM10.25 8.08789C9.85938 8.08789 9.71289 7.93164 9.71289 7.54102V2.35547L15.3379 8.08789H10.25Z" fill="#1F8FEB"/>
</svg>
