<svg width="100%" height="100%" viewBox="0 0 18 21" fill="none" xmlns="http://www.w3.org/2000/svg">
<path d="M0.992188 17.7266C0.992188 19.4219 1.86719 20.2969 3.53906 20.2969H10.8516C12.5234 20.2969 13.3984 19.4141 13.3984 17.7266V16.2812H14.7266C16.3984 16.2812 17.2734 15.3984 17.2734 13.7109V7.53125C17.2734 6.5 17.0547 5.84375 16.4375 5.21094L12.5469 1.24219C11.9531 0.640625 11.25 0.40625 10.3516 0.40625H7.41406C5.74219 0.40625 4.86719 1.28906 4.86719 2.98438V4.42188H3.53906C1.86719 4.42188 0.992188 5.3125 0.992188 7V17.7266ZM12.6094 9.50781L8.375 5.21094C7.78125 4.60938 7.27344 4.44531 6.42188 4.42969V3.07812C6.42188 2.36719 6.79688 1.96875 7.54688 1.96875H10.8047V5.67969C10.8047 6.64844 11.3203 7.15625 12.2812 7.15625H15.7109V13.6094C15.7109 14.3281 15.3359 14.7266 14.5859 14.7266H13.3984V11.7266C13.3984 10.6719 13.2656 10.1797 12.6094 9.50781ZM12.0938 5.48438V2.60156L15.3047 5.86719H12.4766C12.2031 5.86719 12.0938 5.75781 12.0938 5.48438ZM2.54688 17.625V7.10156C2.54688 6.38281 2.92188 5.98438 3.67969 5.98438H6.0625V10.2344C6.0625 11.3672 6.61719 11.9141 7.74219 11.9141H11.8438V17.625C11.8438 18.3438 11.4688 18.7422 10.7109 18.7422H3.67188C2.92188 18.7422 2.54688 18.3438 2.54688 17.625ZM7.89062 10.5469C7.57031 10.5469 7.42969 10.4141 7.42969 10.0859V6.28125L11.6328 10.5469H7.89062Z" fill="rgba(30, 151, 233, 0.6)"/>
</svg>
