<svg width="18" height="18" viewBox="0 0 18 18" fill="none" xmlns="http://www.w3.org/2000/svg">
<path d="M8.95264 17.4736C13.5845 17.4736 17.4194 13.6304 17.4194 9.00684C17.4194 4.375 13.5762 0.540039 8.94434 0.540039C4.3208 0.540039 0.48584 4.375 0.48584 9.00684C0.48584 13.6304 4.3291 17.4736 8.95264 17.4736ZM8.95264 16.0625C5.03467 16.0625 1.90527 12.9248 1.90527 9.00684C1.90527 5.08887 5.02637 1.95117 8.94434 1.95117C12.8623 1.95117 16 5.08887 16.0083 9.00684C16.0166 12.9248 12.8706 16.0625 8.95264 16.0625ZM8.94434 9.77881C9.17676 9.77881 9.35938 9.60449 9.35938 9.38037V5.18018L9.34277 4.79004L9.70801 5.18018L10.0815 5.57031C10.1479 5.64502 10.2476 5.68652 10.3721 5.68652C10.5962 5.68652 10.7539 5.53711 10.7539 5.32129C10.7539 5.22168 10.7207 5.12207 10.6294 5.04736L9.24316 3.70264C9.14355 3.60303 9.04395 3.56152 8.94434 3.56152C8.84473 3.56152 8.74512 3.61133 8.65381 3.70264L7.25928 5.03906C7.16797 5.13037 7.14307 5.22168 7.14307 5.32129C7.14307 5.53711 7.30078 5.68652 7.5166 5.68652C7.63281 5.68652 7.74072 5.64502 7.80713 5.57031L8.18066 5.18018L8.5542 4.79004L8.5376 5.18018V9.38037C8.5376 9.60449 8.72021 9.77881 8.94434 9.77881ZM6.60352 13.041H11.3018C12.2065 13.041 12.6797 12.5762 12.6797 11.6797V7.5874C12.6797 6.69092 12.2065 6.23438 11.3018 6.23438H10.0732V7.07275H11.2935C11.6587 7.07275 11.8413 7.25537 11.8413 7.62891V11.6548C11.8413 12.02 11.6587 12.2109 11.2935 12.2109H6.61182C6.24658 12.2109 6.06396 12.0283 6.06396 11.6548V7.62891C6.06396 7.25537 6.24658 7.07275 6.61182 7.07275H7.84033V6.23438H6.60352C5.70703 6.23438 5.23389 6.69922 5.22559 7.5874V11.6797C5.23389 12.5679 5.70703 13.041 6.60352 13.041Z" fill="white"/>
</svg>
