<svg width="11" height="15" viewBox="0 0 11 15" fill="none" xmlns="http://www.w3.org/2000/svg">
<path d="M1.55566 14.7651H8.66016C9.6416 14.7651 10.125 14.2817 10.125 13.2124V7.72656C10.125 6.75977 9.72949 6.26904 8.90918 6.18848V4.37939C8.90918 1.59619 7.05615 0.255859 5.10791 0.255859C3.15967 0.255859 1.30664 1.59619 1.30664 4.37939V6.21045C0.544922 6.32764 0.0908205 6.81103 0.0908205 7.72656V13.2124C0.0908205 14.2817 0.574219 14.7651 1.55566 14.7651ZM2.71289 4.24756C2.71289 2.54101 3.79688 1.60351 5.10791 1.60351C6.41162 1.60351 7.50293 2.54101 7.50293 4.24756V6.17383L2.71289 6.18115V4.24756Z" fill="white"/>
</svg>
