<svg width="17" height="15" viewBox="0 0 17 15" fill="none" xmlns="http://www.w3.org/2000/svg">
<path d="M11.6641 4.47656C12.4766 4.47656 13.1641 3.95312 13.4297 3.23438H16.1328C16.4531 3.23438 16.7344 2.95312 16.7344 2.60156C16.7344 2.25 16.4531 1.97656 16.1328 1.97656H13.4297C13.1719 1.25 12.4766 0.71875 11.6641 0.71875C10.8516 0.71875 10.1484 1.25 9.89062 1.97656H1.61719C1.26562 1.97656 0.992188 2.25 0.992188 2.60156C0.992188 2.95312 1.26562 3.23438 1.61719 3.23438H9.89844C10.1562 3.95312 10.8516 4.47656 11.6641 4.47656ZM11.6641 3.51562C11.1484 3.51562 10.75 3.10938 10.75 2.59375C10.75 2.07812 11.1484 1.67969 11.6641 1.67969C12.1797 1.67969 12.5781 2.07812 12.5781 2.59375C12.5781 3.10938 12.1797 3.51562 11.6641 3.51562ZM1.58594 6.74219C1.26562 6.74219 0.992188 7.02344 0.992188 7.375C0.992188 7.72656 1.26562 8 1.58594 8H4.38281C4.64062 8.73438 5.33594 9.25781 6.14844 9.25781C6.96094 9.25781 7.65625 8.73438 7.92188 8H16.1016C16.4531 8 16.7344 7.72656 16.7344 7.375C16.7344 7.02344 16.4531 6.74219 16.1016 6.74219H7.91406C7.65625 6.02344 6.96094 5.5 6.14844 5.5C5.33594 5.5 4.64062 6.02344 4.38281 6.74219H1.58594ZM6.14844 8.28906C5.64062 8.28906 5.23438 7.88281 5.23438 7.375C5.23438 6.85938 5.64062 6.46094 6.14844 6.46094C6.66406 6.46094 7.0625 6.85938 7.0625 7.375C7.0625 7.88281 6.66406 8.28906 6.14844 8.28906ZM11.6641 14.0234C12.4766 14.0234 13.1719 13.5 13.4297 12.7734H16.1328C16.4531 12.7734 16.7344 12.5 16.7344 12.1484C16.7344 11.7969 16.4531 11.5156 16.1328 11.5156H13.4297C13.1719 10.7891 12.4766 10.2734 11.6641 10.2734C10.8516 10.2734 10.1562 10.7891 9.89844 11.5156H1.61719C1.26562 11.5156 0.992188 11.7969 0.992188 12.1484C0.992188 12.5 1.26562 12.7734 1.61719 12.7734H9.89062C10.1562 13.5 10.8516 14.0234 11.6641 14.0234ZM11.6641 13.0625C11.1484 13.0625 10.75 12.6562 10.75 12.1484C10.75 11.625 11.1484 11.2344 11.6641 11.2344C12.1797 11.2344 12.5781 11.625 12.5781 12.1484C12.5781 12.6562 12.1797 13.0625 11.6641 13.0625Z" fill="white"/>
</svg>
